<svg width="49" height="44" viewBox="0 0 49 44" fill="none" xmlns="http://www.w3.org/2000/svg">
<path d="M41.9051 14.6659C43.2772 14.1467 44.6493 13.6223 46.0214 13.1031C46.2174 13.0289 46.4134 12.9548 46.6041 12.8806C47.1233 12.6846 47.5312 12.1548 47.3458 11.5774C47.1815 11.0741 46.5988 10.6291 46.0425 10.8357C44.6705 11.3549 43.2984 11.8794 41.9263 12.3985C41.7303 12.4727 41.5343 12.5469 41.3436 12.621C40.8244 12.817 40.4165 13.3468 40.6019 13.9242C40.7661 14.4328 41.3542 14.8778 41.9051 14.6659Z" fill="#FFF0F0"/>
<path d="M37.953 7.52484C38.9702 6.46531 39.9873 5.40579 41.0045 4.34627C41.1475 4.19793 41.2905 4.0443 41.4389 3.89597C41.8203 3.49335 41.868 2.78877 41.4389 2.39674C41.0257 2.01531 40.3529 1.96764 39.9396 2.39674C38.9225 3.45627 37.9054 4.51579 36.8882 5.57531C36.7452 5.72365 36.6021 5.87728 36.4538 6.02561C36.0724 6.42823 36.0247 7.13281 36.4538 7.52484C36.867 7.90627 37.5398 7.95394 37.953 7.52484Z" fill="#FFF0F0"/>
<path d="M42.8746 22.7768C44.3367 22.8934 45.8041 23.0152 47.2663 23.1318C47.4729 23.1477 47.6795 23.1636 47.8914 23.1847C48.4477 23.2271 48.9774 22.6656 48.9509 22.1252C48.9244 21.5107 48.4847 21.1134 47.8914 21.0657C46.4293 20.9491 44.9618 20.8273 43.4997 20.7108C43.2931 20.6949 43.0865 20.679 42.8746 20.6578C42.3183 20.6154 41.7886 21.1769 41.815 21.7173C41.8415 22.3318 42.2812 22.7291 42.8746 22.7768Z" fill="#FFF0F0"/>
<path d="M22.3093 39.8403C22.1026 39.4483 21.896 39.0509 21.6894 38.6589C21.1491 37.6312 20.6087 36.5981 20.0684 35.5704C20.0207 35.4803 19.973 35.385 19.9253 35.2949C20.3491 34.7387 20.7888 34.1612 20.9743 33.4884C21.1544 32.8262 21.1226 32.1111 20.8789 31.4701C20.7518 31.131 20.6193 30.792 20.4922 30.4529C20.4551 30.3523 20.418 30.2516 20.3756 30.1509C21.2868 29.8066 22.198 29.457 23.1092 29.1126C23.0509 28.959 22.9926 28.8 22.9344 28.6464C22.8973 28.5564 22.8655 28.4663 22.8284 28.3709C22.7331 28.122 22.643 27.8783 22.5476 27.6293C22.0656 26.3526 21.5782 25.0811 21.0961 23.8044C20.3915 21.9502 19.6869 20.0908 18.9823 18.2366C18.6804 17.4367 18.3731 16.6314 18.0712 15.8315C17.9758 15.5825 17.8857 15.3388 17.7904 15.0898C17.695 14.8408 17.605 14.5971 17.5096 14.3481C16.9481 14.56 16.3865 14.772 15.825 14.9839C13.9655 15.6884 12.1113 16.393 10.2519 17.0976C8.76854 17.6592 7.28521 18.226 5.80187 18.7875C5.34628 18.9624 4.88009 19.1054 4.49866 19.4233C3.83646 19.9742 3.58217 20.949 3.86824 21.7595C3.89473 21.8337 3.92122 21.9078 3.953 21.982C3.26961 22.2363 2.58622 22.4906 1.91342 22.7608C0.806218 23.1952 0.0380629 24.1699 0.000979557 25.3831C-0.0149133 25.9234 0.165206 26.3896 0.350622 26.877C0.82211 28.1167 1.2936 29.3563 1.76509 30.5959C1.88693 30.9138 2.00348 31.2317 2.12532 31.5495C2.58622 32.6938 3.7411 33.4884 5.00193 33.3666C5.67473 33.303 6.31574 32.9852 6.94616 32.7468C7.26402 32.6249 7.58187 32.5031 7.90503 32.3812C7.91562 32.4077 7.92622 32.4395 7.93681 32.466C8.39241 33.6262 9.61616 34.2248 10.7975 33.7745C11.0677 33.6739 11.3326 33.5679 11.6028 33.4673C12.4981 35.2314 13.3934 36.9902 14.294 38.7543C14.8661 39.8827 15.4382 41.0058 16.0157 42.1342C16.1216 42.3408 16.217 42.5527 16.3282 42.754C16.5878 43.199 17.1229 43.4056 17.6103 43.2467C17.7851 43.1884 17.9493 43.1195 18.1188 43.0506C19.3532 42.5845 20.5822 42.113 21.8166 41.6468C21.8378 41.6415 21.8537 41.6309 21.8748 41.6203C21.9225 41.6044 21.9649 41.5885 22.0073 41.562C22.5688 41.2653 22.696 40.6084 22.4311 40.0734C22.3993 39.9992 22.3516 39.9198 22.3093 39.8403Z" fill="#FFF0F0"/>
<path d="M42.4455 30.13C42.4296 30.0876 42.4137 30.0505 42.3978 30.0081C42.3024 29.7591 42.2071 29.5101 42.117 29.2612C41.7197 28.2175 41.3224 27.1686 40.9251 26.125C40.3317 24.5675 39.7437 23.0047 39.1503 21.4472C38.4511 19.6089 37.7571 17.7759 37.0578 15.9376C36.3585 14.0888 35.6539 12.2399 34.9546 10.3963C34.3401 8.76996 33.7203 7.14889 33.1058 5.52782C32.6714 4.38883 32.2423 3.24984 31.8078 2.11086C31.6913 1.80359 31.5748 1.49633 31.4582 1.18907C31.347 0.897702 31.2516 0.595738 31.0291 0.373238C30.5099 -0.140632 29.6199 -0.124739 29.1378 0.426214C29.0796 0.489785 29.0266 0.563952 28.9736 0.632821C28.6928 0.987761 28.4068 1.3427 28.126 1.70294C27.0877 3.01145 26.044 4.31996 25.0057 5.62848C23.782 7.16479 22.5582 8.70639 21.3345 10.2427C20.6299 11.1274 19.9253 12.0174 19.2207 12.9021C19.2949 13.1034 19.3743 13.3047 19.4485 13.506C19.4803 13.5908 19.5121 13.6756 19.5439 13.7603C19.6498 14.0464 19.7611 14.3325 19.8723 14.6185C20.3438 15.8582 20.8153 17.1031 21.2868 18.3428C21.9914 20.1969 22.6959 22.0564 23.4005 23.9106C23.8349 25.0548 24.2693 26.2044 24.7037 27.3487C24.815 27.6348 24.9209 27.9209 25.0322 28.2069C25.0746 28.3182 25.117 28.4241 25.154 28.5354C25.2229 28.7155 25.2865 28.8903 25.3553 29.0704C25.3712 29.0757 25.3871 29.0757 25.403 29.081C27.0824 29.3777 28.7617 29.6691 30.4464 29.9657C32.3853 30.3048 34.3242 30.6438 36.2578 30.9829C37.6087 31.2213 38.9596 31.4544 40.3105 31.6928C40.5118 31.7298 40.7078 31.7616 40.9092 31.7987C40.9462 31.804 40.978 31.8093 41.0151 31.8093C41.0469 31.8146 41.084 31.8199 41.1211 31.8252C42.0217 31.9206 42.7104 30.9723 42.4455 30.13Z" fill="#FFF0F0"/>
</svg>
